<svg xmlns="http://www.w3.org/2000/svg" width="800" height="450" viewBox="0 0 800 450">
  <defs>
    <linearGradient id="bg" x1="0" y1="0" x2="1" y2="1"><stop offset="0%" stop-color="#000046"/><stop offset="100%" stop-color="#1cb5e0"/></linearGradient>
  </defs>
  <rect width="800" height="450" fill="url(#bg)"/>
  <circle cx="660" cy="80" r="50" fill="none" stroke="rgba(255,255,255,0.05)" stroke-width="1.5"/><circle cx="660" cy="80" r="90" fill="none" stroke="rgba(255,255,255,0.08)" stroke-width="1.5"/><circle cx="660" cy="80" r="130" fill="none" stroke="rgba(255,255,255,0.11)" stroke-width="1.5"/><circle cx="660" cy="80" r="170" fill="none" stroke="rgba(255,255,255,0.14)" stroke-width="1.5"/>
  <circle cx="188" cy="408" r="1.7" fill="rgba(255,255,255,0.23)"/><circle cx="195" cy="208" r="3.0" fill="rgba(255,255,255,0.28)"/><circle cx="326" cy="377" r="2.7" fill="rgba(255,255,255,0.16)"/><circle cx="671" cy="224" r="3.4" fill="rgba(255,255,255,0.33)"/><circle cx="773" cy="403" r="1.2" fill="rgba(255,255,255,0.32)"/><circle cx="303" cy="277" r="3.5" fill="rgba(255,255,255,0.38)"/><circle cx="756" cy="52" r="3.2" fill="rgba(255,255,255,0.24)"/><circle cx="189" cy="129" r="1.3" fill="rgba(255,255,255,0.29)"/><circle cx="402" cy="353" r="2.9" fill="rgba(255,255,255,0.20)"/><circle cx="2" cy="198" r="1.4" fill="rgba(255,255,255,0.25)"/><circle cx="482" cy="2" r="2.4" fill="rgba(255,255,255,0.46)"/><circle cx="768" cy="411" r="1.8" fill="rgba(255,255,255,0.34)"/><circle cx="700" cy="350" r="3.6" fill="rgba(255,255,255,0.22)"/><circle cx="547" cy="144" r="2.1" fill="rgba(255,255,255,0.41)"/><circle cx="40" cy="135" r="1.3" fill="rgba(255,255,255,0.64)"/><circle cx="435" cy="196" r="2.0" fill="rgba(255,255,255,0.41)"/><circle cx="70" cy="430" r="2.7" fill="rgba(255,255,255,0.34)"/><circle cx="177" cy="247" r="1.5" fill="rgba(255,255,255,0.51)"/><circle cx="764" cy="216" r="3.3" fill="rgba(255,255,255,0.35)"/><circle cx="148" cy="362" r="1.1" fill="rgba(255,255,255,0.64)"/><circle cx="457" cy="302" r="1.7" fill="rgba(255,255,255,0.63)"/><circle cx="480" cy="25" r="2.0" fill="rgba(255,255,255,0.64)"/><circle cx="253" cy="257" r="1.4" fill="rgba(255,255,255,0.64)"/><circle cx="207" cy="374" r="3.5" fill="rgba(255,255,255,0.26)"/><circle cx="484" cy="196" r="3.2" fill="rgba(255,255,255,0.54)"/><circle cx="620" cy="344" r="3.0" fill="rgba(255,255,255,0.27)"/><circle cx="558" cy="437" r="2.3" fill="rgba(255,255,255,0.35)"/><circle cx="464" cy="49" r="2.8" fill="rgba(255,255,255,0.18)"/><circle cx="631" cy="131" r="1.7" fill="rgba(255,255,255,0.36)"/><circle cx="296" cy="400" r="2.3" fill="rgba(255,255,255,0.57)"/><circle cx="429" cy="13" r="1.1" fill="rgba(255,255,255,0.34)"/><circle cx="222" cy="165" r="1.4" fill="rgba(255,255,255,0.45)"/><circle cx="464" cy="175" r="1.2" fill="rgba(255,255,255,0.41)"/><circle cx="271" cy="392" r="2.7" fill="rgba(255,255,255,0.36)"/><circle cx="62" cy="299" r="1.8" fill="rgba(255,255,255,0.48)"/><circle cx="227" cy="311" r="1.9" fill="rgba(255,255,255,0.30)"/><circle cx="284" cy="72" r="2.9" fill="rgba(255,255,255,0.50)"/><circle cx="300" cy="347" r="3.2" fill="rgba(255,255,255,0.57)"/><circle cx="37" cy="346" r="2.4" fill="rgba(255,255,255,0.56)"/><circle cx="681" cy="97" r="3.3" fill="rgba(255,255,255,0.17)"/><circle cx="49" cy="197" r="1.3" fill="rgba(255,255,255,0.36)"/><circle cx="305" cy="48" r="2.4" fill="rgba(255,255,255,0.20)"/><circle cx="587" cy="28" r="1.9" fill="rgba(255,255,255,0.31)"/><circle cx="716" cy="216" r="1.9" fill="rgba(255,255,255,0.35)"/><circle cx="380" cy="260" r="2.3" fill="rgba(255,255,255,0.58)"/><circle cx="375" cy="148" r="2.9" fill="rgba(255,255,255,0.31)"/><circle cx="499" cy="210" r="3.5" fill="rgba(255,255,255,0.45)"/><circle cx="507" cy="9" r="3.2" fill="rgba(255,255,255,0.42)"/><circle cx="580" cy="381" r="1.4" fill="rgba(255,255,255,0.53)"/><circle cx="727" cy="67" r="3.1" fill="rgba(255,255,255,0.54)"/><circle cx="705" cy="223" r="1.5" fill="rgba(255,255,255,0.36)"/><circle cx="776" cy="117" r="2.1" fill="rgba(255,255,255,0.47)"/><circle cx="259" cy="230" r="3.5" fill="rgba(255,255,255,0.56)"/><circle cx="548" cy="100" r="1.6" fill="rgba(255,255,255,0.31)"/><circle cx="508" cy="46" r="1.1" fill="rgba(255,255,255,0.45)"/><circle cx="515" cy="13" r="1.4" fill="rgba(255,255,255,0.24)"/><circle cx="443" cy="98" r="2.1" fill="rgba(255,255,255,0.34)"/><circle cx="705" cy="379" r="3.3" fill="rgba(255,255,255,0.43)"/><circle cx="374" cy="24" r="1.1" fill="rgba(255,255,255,0.63)"/><circle cx="417" cy="39" r="1.4" fill="rgba(255,255,255,0.54)"/><circle cx="467" cy="117" r="2.7" fill="rgba(255,255,255,0.33)"/><circle cx="318" cy="200" r="3.2" fill="rgba(255,255,255,0.42)"/><circle cx="654" cy="208" r="2.8" fill="rgba(255,255,255,0.30)"/><circle cx="61" cy="22" r="1.1" fill="rgba(255,255,255,0.32)"/><circle cx="78" cy="235" r="1.5" fill="rgba(255,255,255,0.62)"/><circle cx="474" cy="395" r="1.2" fill="rgba(255,255,255,0.53)"/><circle cx="40" cy="108" r="2.7" fill="rgba(255,255,255,0.61)"/><circle cx="688" cy="444" r="2.6" fill="rgba(255,255,255,0.24)"/><circle cx="764" cy="276" r="3.6" fill="rgba(255,255,255,0.27)"/><circle cx="318" cy="335" r="1.9" fill="rgba(255,255,255,0.22)"/>
    <text x="400" y="215.0" text-anchor="middle" fill="#ffffff" font-family="PingFang SC, Hiragino Sans GB, Microsoft YaHei, sans-serif" font-size="44" font-weight="700" style="text-shadow: 0 2px 16px rgba(0,0,0,0.35)">js 对象数组赋值问题</text>
    <text x="400" y="415" text-anchor="middle" fill="rgba(255,255,255,0.6)" font-family="Helvetica Neue, Arial, sans-serif" font-size="12" letter-spacing="5">WANT&#39;S BLOG</text>
</svg>