<svg xmlns="http://www.w3.org/2000/svg" width="800" height="450" viewBox="0 0 800 450">
  <defs>
    <linearGradient id="bg" x1="0" y1="0" x2="1" y2="1"><stop offset="0%" stop-color="#000428"/><stop offset="100%" stop-color="#004e92"/></linearGradient>
  </defs>
  <rect width="800" height="450" fill="url(#bg)"/>
  <circle cx="660" cy="80" r="50" fill="none" stroke="rgba(255,255,255,0.05)" stroke-width="1.5"/><circle cx="660" cy="80" r="90" fill="none" stroke="rgba(255,255,255,0.08)" stroke-width="1.5"/><circle cx="660" cy="80" r="130" fill="none" stroke="rgba(255,255,255,0.11)" stroke-width="1.5"/><circle cx="660" cy="80" r="170" fill="none" stroke="rgba(255,255,255,0.14)" stroke-width="1.5"/>
  <circle cx="126" cy="134" r="1.7" fill="rgba(255,255,255,0.52)"/><circle cx="500" cy="40" r="3.2" fill="rgba(255,255,255,0.19)"/><circle cx="699" cy="162" r="3.3" fill="rgba(255,255,255,0.26)"/><circle cx="268" cy="329" r="2.1" fill="rgba(255,255,255,0.32)"/><circle cx="784" cy="89" r="2.6" fill="rgba(255,255,255,0.37)"/><circle cx="473" cy="355" r="1.5" fill="rgba(255,255,255,0.23)"/><circle cx="783" cy="423" r="3.1" fill="rgba(255,255,255,0.41)"/><circle cx="130" cy="43" r="2.5" fill="rgba(255,255,255,0.50)"/><circle cx="386" cy="427" r="2.5" fill="rgba(255,255,255,0.56)"/><circle cx="2" cy="78" r="1.1" fill="rgba(255,255,255,0.65)"/><circle cx="83" cy="147" r="1.7" fill="rgba(255,255,255,0.56)"/><circle cx="799" cy="261" r="3.6" fill="rgba(255,255,255,0.44)"/><circle cx="445" cy="87" r="2.7" fill="rgba(255,255,255,0.20)"/><circle cx="39" cy="72" r="2.2" fill="rgba(255,255,255,0.57)"/><circle cx="431" cy="300" r="2.0" fill="rgba(255,255,255,0.35)"/><circle cx="354" cy="357" r="1.1" fill="rgba(255,255,255,0.47)"/><circle cx="549" cy="389" r="3.2" fill="rgba(255,255,255,0.22)"/><circle cx="736" cy="310" r="2.4" fill="rgba(255,255,255,0.58)"/><circle cx="361" cy="436" r="2.8" fill="rgba(255,255,255,0.31)"/><circle cx="237" cy="5" r="2.5" fill="rgba(255,255,255,0.41)"/><circle cx="371" cy="58" r="1.9" fill="rgba(255,255,255,0.16)"/><circle cx="308" cy="216" r="3.6" fill="rgba(255,255,255,0.21)"/><circle cx="272" cy="156" r="3.4" fill="rgba(255,255,255,0.32)"/><circle cx="39" cy="372" r="3.2" fill="rgba(255,255,255,0.57)"/><circle cx="407" cy="306" r="2.8" fill="rgba(255,255,255,0.36)"/><circle cx="386" cy="73" r="3.0" fill="rgba(255,255,255,0.52)"/><circle cx="763" cy="232" r="2.9" fill="rgba(255,255,255,0.47)"/><circle cx="622" cy="322" r="2.1" fill="rgba(255,255,255,0.22)"/><circle cx="474" cy="229" r="1.6" fill="rgba(255,255,255,0.15)"/><circle cx="640" cy="431" r="3.0" fill="rgba(255,255,255,0.47)"/><circle cx="459" cy="400" r="2.6" fill="rgba(255,255,255,0.19)"/><circle cx="323" cy="217" r="1.8" fill="rgba(255,255,255,0.37)"/><circle cx="444" cy="437" r="2.2" fill="rgba(255,255,255,0.45)"/><circle cx="658" cy="179" r="3.2" fill="rgba(255,255,255,0.41)"/><circle cx="464" cy="383" r="3.5" fill="rgba(255,255,255,0.36)"/><circle cx="737" cy="316" r="1.6" fill="rgba(255,255,255,0.17)"/><circle cx="133" cy="388" r="2.1" fill="rgba(255,255,255,0.48)"/><circle cx="50" cy="68" r="2.4" fill="rgba(255,255,255,0.29)"/><circle cx="693" cy="413" r="1.2" fill="rgba(255,255,255,0.19)"/><circle cx="578" cy="401" r="2.9" fill="rgba(255,255,255,0.53)"/><circle cx="555" cy="8" r="1.0" fill="rgba(255,255,255,0.52)"/><circle cx="348" cy="59" r="2.6" fill="rgba(255,255,255,0.15)"/><circle cx="122" cy="320" r="3.5" fill="rgba(255,255,255,0.50)"/><circle cx="346" cy="364" r="1.0" fill="rgba(255,255,255,0.32)"/><circle cx="548" cy="83" r="1.4" fill="rgba(255,255,255,0.43)"/><circle cx="314" cy="436" r="3.1" fill="rgba(255,255,255,0.51)"/><circle cx="359" cy="70" r="3.6" fill="rgba(255,255,255,0.32)"/><circle cx="525" cy="254" r="3.3" fill="rgba(255,255,255,0.44)"/><circle cx="214" cy="272" r="2.5" fill="rgba(255,255,255,0.46)"/><circle cx="410" cy="330" r="3.4" fill="rgba(255,255,255,0.50)"/><circle cx="573" cy="278" r="2.7" fill="rgba(255,255,255,0.38)"/><circle cx="33" cy="340" r="2.8" fill="rgba(255,255,255,0.27)"/><circle cx="794" cy="180" r="2.2" fill="rgba(255,255,255,0.38)"/><circle cx="3" cy="213" r="1.7" fill="rgba(255,255,255,0.59)"/><circle cx="429" cy="388" r="1.5" fill="rgba(255,255,255,0.60)"/><circle cx="495" cy="29" r="2.1" fill="rgba(255,255,255,0.49)"/><circle cx="576" cy="125" r="3.1" fill="rgba(255,255,255,0.39)"/><circle cx="578" cy="69" r="3.1" fill="rgba(255,255,255,0.30)"/><circle cx="212" cy="376" r="1.3" fill="rgba(255,255,255,0.29)"/><circle cx="759" cy="445" r="3.3" fill="rgba(255,255,255,0.34)"/><circle cx="486" cy="375" r="1.5" fill="rgba(255,255,255,0.24)"/><circle cx="222" cy="49" r="1.9" fill="rgba(255,255,255,0.27)"/><circle cx="153" cy="142" r="2.1" fill="rgba(255,255,255,0.65)"/><circle cx="706" cy="381" r="2.1" fill="rgba(255,255,255,0.52)"/><circle cx="593" cy="19" r="1.3" fill="rgba(255,255,255,0.51)"/><circle cx="489" cy="313" r="2.8" fill="rgba(255,255,255,0.41)"/><circle cx="243" cy="170" r="2.7" fill="rgba(255,255,255,0.24)"/><circle cx="384" cy="438" r="3.0" fill="rgba(255,255,255,0.28)"/><circle cx="684" cy="135" r="1.2" fill="rgba(255,255,255,0.49)"/><circle cx="193" cy="371" r="2.8" fill="rgba(255,255,255,0.55)"/>
    <text x="400" y="192.0" text-anchor="middle" fill="#ffffff" font-family="PingFang SC, Hiragino Sans GB, Microsoft YaHei, sans-serif" font-size="32" font-weight="700" style="text-shadow: 0 2px 16px rgba(0,0,0,0.35)">理解 Go </text>
    <text x="400" y="238.0" text-anchor="middle" fill="#ffffff" font-family="PingFang SC, Hiragino Sans GB, Microsoft YaHei, sans-serif" font-size="32" font-weight="700" style="text-shadow: 0 2px 16px rgba(0,0,0,0.35)">语言的面向对象</text>
    <text x="400" y="415" text-anchor="middle" fill="rgba(255,255,255,0.6)" font-family="Helvetica Neue, Arial, sans-serif" font-size="12" letter-spacing="5">WANT&#39;S BLOG</text>
</svg>