<svg xmlns="http://www.w3.org/2000/svg" width="800" height="450" viewBox="0 0 800 450"><rect width="800" height="450" fill="#264653"/><circle cx="184" cy="98" r="83" fill="#2a9d8f"/><line x1="279" y1="98" x2="297" y2="98" stroke="#2a9d8f" stroke-width="7" stroke-linecap="round"/><line x1="267" y1="145" x2="282" y2="154" stroke="#2a9d8f" stroke-width="7" stroke-linecap="round"/><line x1="232" y1="180" x2="241" y2="196" stroke="#2a9d8f" stroke-width="7" stroke-linecap="round"/><line x1="184" y1="193" x2="184" y2="211" stroke="#2a9d8f" stroke-width="7" stroke-linecap="round"/><line x1="137" y1="180" x2="128" y2="196" stroke="#2a9d8f" stroke-width="7" stroke-linecap="round"/><line x1="102" y1="145" x2="86" y2="154" stroke="#2a9d8f" stroke-width="7" stroke-linecap="round"/><line x1="89" y1="98" x2="71" y2="98" stroke="#2a9d8f" stroke-width="7" stroke-linecap="round"/><line x1="102" y1="50" x2="86" y2="41" stroke="#2a9d8f" stroke-width="7" stroke-linecap="round"/><line x1="137" y1="16" x2="128" y2="-0" stroke="#2a9d8f" stroke-width="7" stroke-linecap="round"/><line x1="184" y1="3" x2="184" y2="-15" stroke="#2a9d8f" stroke-width="7" stroke-linecap="round"/><line x1="232" y1="16" x2="241" y2="-0" stroke="#2a9d8f" stroke-width="7" stroke-linecap="round"/><line x1="267" y1="50" x2="282" y2="41" stroke="#2a9d8f" stroke-width="7" stroke-linecap="round"/><path d="M0 235 Q 50 229 100 248 Q 150 235 200 245 Q 250 226 300 231 Q 350 214 400 221 Q 450 212 500 228 Q 550 223 600 243 Q 650 234 700 249 Q 750 231 800 238 L800 450 L0 450 Z" fill="#e9c46a" opacity="0.55"/><path d="M0 289 Q 50 289 100 301 Q 150 282 200 287 Q 250 269 300 275 Q 350 266 400 280 Q 450 276 500 295 Q 550 287 600 303 Q 650 287 700 294 Q 750 275 800 279 L800 450 L0 450 Z" fill="#f4a261" opacity="0.7"/><path d="M0 343 Q 50 337 100 343 Q 150 325 200 330 Q 250 319 300 333 Q 350 328 400 347 Q 450 340 500 357 Q 550 341 600 350 Q 650 330 700 335 Q 750 320 800 329 L800 450 L0 450 Z" fill="#e9c46a" opacity="0.85"/><path d="M0 397 Q 50 380 100 385 Q 150 373 200 385 Q 250 380 300 399 Q 350 393 400 411 Q 450 396 500 406 Q 550 386 600 391 Q 650 375 700 383 Q 750 376 800 392 L800 450 L0 450 Z" fill="#f4a261" opacity="1"/>
</svg>